<svg width="200" height="200" viewBox="0 0 200 200" fill="none" xmlns="http://www.w3.org/2000/svg">
  <!-- Delivery box -->
  <rect x="60" y="80" width="80" height="70" rx="5" fill="#FFB84D"/>
  <rect x="60" y="80" width="80" height="20" fill="#FF9500"/>
  <line x1="100" y1="80" x2="100" y2="150" stroke="#E67E00" stroke-width="3"/>
  <line x1="60" y1="115" x2="140" y2="115" stroke="#E67E00" stroke-width="3"/>
  
  <!-- Package tape -->
  <rect x="95" y="70" width="10" height="80" fill="#8B4513" opacity="0.3"/>
  
  <!-- Delivery person icon -->
  <circle cx="100" cy="40" r="15" fill="#2C3E50"/>
  <path d="M 85 55 L 85 75 L 95 85 L 105 85 L 115 75 L 115 55 Z" fill="#3498DB"/>
  
  <!-- Hand holding money -->
  <circle cx="40" cy="120" r="8" fill="#FFD7B5"/>
  <rect x="25" y="120" width="30" height="15" rx="3" fill="#FFD7B5"/>
  
  <!-- Money bills -->
  <rect x="15" y="110" width="35" height="20" rx="3" fill="#4CD964"/>
  <circle cx="32" cy="120" r="5" fill="#fff" opacity="0.5"/>
  <text x="32" y="124" font-size="8" fill="#fff" font-weight="bold" text-anchor="middle">₫</text>
  
  <!-- Arrow indicating exchange -->
  <path d="M 55 125 L 65 125 L 60 120 M 55 125 L 60 130" stroke="#2C3E50" stroke-width="2" fill="none"/>
  
  <!-- Location pin -->
  <path d="M 150 40 Q 150 25 165 25 Q 180 25 180 40 Q 180 55 165 70 Q 150 55 150 40" fill="#FF6B6B"/>
  <circle cx="165" cy="40" r="5" fill="#fff"/>
</svg>




